<svg xmlns="http://www.w3.org/2000/svg" width="741" height="465" viewBox="0 0 741 465"><rect x="0" y="0" width="741" height="465" fill="#0b0f14"/><text x="30" y="20" fill="#cfe6ff" font-family="Inter, Segoe UI, Arial" font-size="12">Basement North</text><g font-family="Inter, Segoe UI, Arial" font-size="10"><g id="TMC01043" class="seat">  <rect x="32" y="32" width="48" height="37" rx="6" ry="6" fill="#5b6778" stroke="#223"/>
  <text x="56.0" y="53.5" text-anchor="middle" fill="#e8f0f6">TMC01043</text>
</g><g id="TMC01042" class="seat">  <rect x="148" y="32" width="93" height="37" rx="6" ry="6" fill="#5b6778" stroke="#223"/>
  <text x="194.5" y="53.5" text-anchor="middle" fill="#e8f0f6">TMC01042</text>
</g><g id="TMC01039" class="seat">  <rect x="297" y="32" width="60" height="37" rx="6" ry="6" fill="#5b6778" stroke="#223"/>
  <text x="327.0" y="53.5" text-anchor="middle" fill="#e8f0f6">TMC01039</text>
</g><g id="TMC01038" class="seat">  <rect x="425" y="32" width="60" height="37" rx="6" ry="6" fill="#5b6778" stroke="#223"/>
  <text x="455.0" y="53.5" text-anchor="middle" fill="#e8f0f6">TMC01038</text>
</g><g id="TMC01036" class="seat">  <rect x="32" y="114" width="48" height="38" rx="6" ry="6" fill="#5b6778" stroke="#223"/>
  <text x="56.0" y="136.0" text-anchor="middle" fill="#e8f0f6">TMC01036</text>
</g><g id="TMC01033" class="seat">  <rect x="148" y="114" width="93" height="38" rx="6" ry="6" fill="#5b6778" stroke="#223"/>
  <text x="194.5" y="136.0" text-anchor="middle" fill="#e8f0f6">TMC01033</text>
</g><g id="TMC00728" class="seat">  <rect x="245" y="114" width="48" height="38" rx="6" ry="6" fill="#5b6778" stroke="#223"/>
  <text x="269.0" y="136.0" text-anchor="middle" fill="#e8f0f6">TMC00728</text>
</g><g id="TMC01037" class="seat">  <rect x="361" y="114" width="60" height="38" rx="6" ry="6" fill="#5b6778" stroke="#223"/>
  <text x="391.0" y="136.0" text-anchor="middle" fill="#e8f0f6">TMC01037</text>
</g><g id="TMC00834" class="seat">  <rect x="597" y="114" width="48" height="38" rx="6" ry="6" fill="#5b6778" stroke="#223"/>
  <text x="621.0" y="136.0" text-anchor="middle" fill="#e8f0f6">TMC00834</text>
</g><g id="TMC00840" class="seat">  <rect x="32" y="156" width="48" height="37" rx="6" ry="6" fill="#5b6778" stroke="#223"/>
  <text x="56.0" y="177.5" text-anchor="middle" fill="#e8f0f6">TMC00840</text>
</g><g id="TMC01032" class="seat">  <rect x="148" y="156" width="93" height="37" rx="6" ry="6" fill="#5b6778" stroke="#223"/>
  <text x="194.5" y="177.5" text-anchor="middle" fill="#e8f0f6">TMC01032</text>
</g><g id="TMC01030" class="seat">  <rect x="245" y="156" width="48" height="37" rx="6" ry="6" fill="#5b6778" stroke="#223"/>
  <text x="269.0" y="177.5" text-anchor="middle" fill="#e8f0f6">TMC01030</text>
</g><g id="TMC00995" class="seat">  <rect x="361" y="156" width="60" height="37" rx="6" ry="6" fill="#5b6778" stroke="#223"/>
  <text x="391.0" y="177.5" text-anchor="middle" fill="#e8f0f6">TMC00995</text>
</g><g id="TMC01031" class="seat">  <rect x="649" y="237" width="60" height="36" rx="6" ry="6" fill="#5b6778" stroke="#223"/>
  <text x="679.0" y="258.0" text-anchor="middle" fill="#e8f0f6">TMC01031</text>
</g><g id="TMC01029" class="seat">  <rect x="84" y="317" width="60" height="36" rx="6" ry="6" fill="#5b6778" stroke="#223"/>
  <text x="114.0" y="338.0" text-anchor="middle" fill="#e8f0f6">TMC01029</text>
</g><g id="TMC01034" class="seat">  <rect x="649" y="317" width="60" height="36" rx="6" ry="6" fill="#5b6778" stroke="#223"/>
  <text x="679.0" y="338.0" text-anchor="middle" fill="#e8f0f6">TMC01034</text>
</g><g id="TMC01041" class="seat">  <rect x="361" y="397" width="60" height="36" rx="6" ry="6" fill="#5b6778" stroke="#223"/>
  <text x="391.0" y="418.0" text-anchor="middle" fill="#e8f0f6">TMC01041</text>
</g><g id="TMC01040" class="seat">  <rect x="425" y="397" width="60" height="36" rx="6" ry="6" fill="#5b6778" stroke="#223"/>
  <text x="455.0" y="418.0" text-anchor="middle" fill="#e8f0f6">TMC01040</text>
</g><g id="TMC00992" class="seat">  <rect x="649" y="397" width="60" height="36" rx="6" ry="6" fill="#5b6778" stroke="#223"/>
  <text x="679.0" y="418.0" text-anchor="middle" fill="#e8f0f6">TMC00992</text>
</g></g></svg>