<svg xmlns="http://www.w3.org/2000/svg" width="800" height="416" viewBox="0 0 800 416">
<rect x="0" y="0" width="800" height="416" fill="#0b0f14"/><g font-family="Inter,Segoe UI,Arial" font-size="10">
<text x="40" y="28" fill="#cfe6ff">Third Floor South</text>
<g id="TMC01024" class="seat">
<rect x="136" y="68" rx="6" ry="6" width="42" height="24" fill="#5b6778" stroke="#223" />
<text x="157.0" y="84.0" text-anchor="middle" fill="#e8f0f6">TMC01024</text>
</g>
<g id="TMC00856" class="seat">
<rect x="184" y="68" rx="6" ry="6" width="42" height="24" fill="#5b6778" stroke="#223" />
<text x="205.0" y="84.0" text-anchor="middle" fill="#e8f0f6">TMC00856</text>
</g>
<g id="TMC00866" class="seat">
<rect x="280" y="68" rx="6" ry="6" width="42" height="24" fill="#5b6778" stroke="#223" />
<text x="301.0" y="84.0" text-anchor="middle" fill="#e8f0f6">TMC00866</text>
</g>
<g id="TMC00861" class="seat">
<rect x="328" y="68" rx="6" ry="6" width="42" height="24" fill="#5b6778" stroke="#223" />
<text x="349.0" y="84.0" text-anchor="middle" fill="#e8f0f6">TMC00861</text>
</g>
<g id="TMC00919" class="seat">
<rect x="472" y="96" rx="6" ry="6" width="42" height="24" fill="#5b6778" stroke="#223" />
<text x="493.0" y="112.0" text-anchor="middle" fill="#e8f0f6">TMC00919</text>
</g>
<g id="TMC01022" class="seat">
<rect x="568" y="96" rx="6" ry="6" width="42" height="24" fill="#5b6778" stroke="#223" />
<text x="589.0" y="112.0" text-anchor="middle" fill="#e8f0f6">TMC01022</text>
</g>
<g id="TMC01009" class="seat">
<rect x="664" y="96" rx="6" ry="6" width="42" height="24" fill="#5b6778" stroke="#223" />
<text x="685.0" y="112.0" text-anchor="middle" fill="#e8f0f6">TMC01009</text>
</g>
<g id="TMC00854" class="seat">
<rect x="136" y="124" rx="6" ry="6" width="42" height="24" fill="#5b6778" stroke="#223" />
<text x="157.0" y="140.0" text-anchor="middle" fill="#e8f0f6">TMC00854</text>
</g>
<g id="TMC00857" class="seat">
<rect x="184" y="124" rx="6" ry="6" width="42" height="24" fill="#5b6778" stroke="#223" />
<text x="205.0" y="140.0" text-anchor="middle" fill="#e8f0f6">TMC00857</text>
</g>
<g id="TMC00865" class="seat">
<rect x="280" y="124" rx="6" ry="6" width="42" height="24" fill="#5b6778" stroke="#223" />
<text x="301.0" y="140.0" text-anchor="middle" fill="#e8f0f6">TMC00865</text>
</g>
<g id="TMC00862" class="seat">
<rect x="328" y="124" rx="6" ry="6" width="42" height="24" fill="#5b6778" stroke="#223" />
<text x="349.0" y="140.0" text-anchor="middle" fill="#e8f0f6">TMC00862</text>
</g>
<g id="TMC00870" class="seat">
<rect x="472" y="124" rx="6" ry="6" width="42" height="24" fill="#5b6778" stroke="#223" />
<text x="493.0" y="140.0" text-anchor="middle" fill="#e8f0f6">TMC00870</text>
</g>
<g id="TMC00869" class="seat">
<rect x="568" y="124" rx="6" ry="6" width="42" height="24" fill="#5b6778" stroke="#223" />
<text x="589.0" y="140.0" text-anchor="middle" fill="#e8f0f6">TMC00869</text>
</g>
<g id="TMC00853" class="seat">
<rect x="136" y="180" rx="6" ry="6" width="42" height="24" fill="#5b6778" stroke="#223" />
<text x="157.0" y="196.0" text-anchor="middle" fill="#e8f0f6">TMC00853</text>
</g>
<g id="TMC00858" class="seat">
<rect x="184" y="180" rx="6" ry="6" width="42" height="24" fill="#5b6778" stroke="#223" />
<text x="205.0" y="196.0" text-anchor="middle" fill="#e8f0f6">TMC00858</text>
</g>
<g id="TMC00863" class="seat">
<rect x="280" y="180" rx="6" ry="6" width="42" height="24" fill="#5b6778" stroke="#223" />
<text x="301.0" y="196.0" text-anchor="middle" fill="#e8f0f6">TMC00863</text>
</g>
<g id="TMC00855" class="seat">
<rect x="328" y="180" rx="6" ry="6" width="42" height="24" fill="#5b6778" stroke="#223" />
<text x="349.0" y="196.0" text-anchor="middle" fill="#e8f0f6">TMC00855</text>
</g>
<g id="TMC00875" class="seat">
<rect x="424" y="180" rx="6" ry="6" width="42" height="24" fill="#5b6778" stroke="#223" />
<text x="445.0" y="196.0" text-anchor="middle" fill="#e8f0f6">TMC00875</text>
</g>
<g id="TMC00876" class="seat">
<rect x="520" y="180" rx="6" ry="6" width="42" height="24" fill="#5b6778" stroke="#223" />
<text x="541.0" y="196.0" text-anchor="middle" fill="#e8f0f6">TMC00876</text>
</g>
<g id="TMC00877" class="seat">
<rect x="616" y="180" rx="6" ry="6" width="42" height="24" fill="#5b6778" stroke="#223" />
<text x="637.0" y="196.0" text-anchor="middle" fill="#e8f0f6">TMC00877</text>
</g>
<g id="TMC00878" class="seat">
<rect x="712" y="180" rx="6" ry="6" width="42" height="24" fill="#5b6778" stroke="#223" />
<text x="733.0" y="196.0" text-anchor="middle" fill="#e8f0f6">TMC00878</text>
</g>
<g id="TMC00874" class="seat">
<rect x="424" y="208" rx="6" ry="6" width="42" height="24" fill="#5b6778" stroke="#223" />
<text x="445.0" y="224.0" text-anchor="middle" fill="#e8f0f6">TMC00874</text>
</g>
<g id="TMC00873" class="seat">
<rect x="520" y="208" rx="6" ry="6" width="42" height="24" fill="#5b6778" stroke="#223" />
<text x="541.0" y="224.0" text-anchor="middle" fill="#e8f0f6">TMC00873</text>
</g>
<g id="TMC00872" class="seat">
<rect x="616" y="208" rx="6" ry="6" width="42" height="24" fill="#5b6778" stroke="#223" />
<text x="637.0" y="224.0" text-anchor="middle" fill="#e8f0f6">TMC00872</text>
</g>
<g id="TMC00871" class="seat">
<rect x="712" y="208" rx="6" ry="6" width="42" height="24" fill="#5b6778" stroke="#223" />
<text x="733.0" y="224.0" text-anchor="middle" fill="#e8f0f6">TMC00871</text>
</g>
<g id="TMC00852" class="seat">
<rect x="136" y="236" rx="6" ry="6" width="42" height="24" fill="#5b6778" stroke="#223" />
<text x="157.0" y="252.0" text-anchor="middle" fill="#e8f0f6">TMC00852</text>
</g>
<g id="TMC00859" class="seat">
<rect x="184" y="236" rx="6" ry="6" width="42" height="24" fill="#5b6778" stroke="#223" />
<text x="205.0" y="252.0" text-anchor="middle" fill="#e8f0f6">TMC00859</text>
</g>
<g id="TMC00851" class="seat">
<rect x="136" y="292" rx="6" ry="6" width="42" height="24" fill="#5b6778" stroke="#223" />
<text x="157.0" y="308.0" text-anchor="middle" fill="#e8f0f6">TMC00851</text>
</g>
<g id="TMC00860" class="seat">
<rect x="184" y="292" rx="6" ry="6" width="42" height="24" fill="#5b6778" stroke="#223" />
<text x="205.0" y="308.0" text-anchor="middle" fill="#e8f0f6">TMC00860</text>
</g>
<g id="TMC01026" class="seat">
<rect x="88" y="348" rx="6" ry="6" width="42" height="24" fill="#5b6778" stroke="#223" />
<text x="109.0" y="364.0" text-anchor="middle" fill="#e8f0f6">TMC01026</text>
</g>
<g id="TMC00945" class="seat">
<rect x="184" y="348" rx="6" ry="6" width="42" height="24" fill="#5b6778" stroke="#223" />
<text x="205.0" y="364.0" text-anchor="middle" fill="#e8f0f6">TMC00945</text>
</g>
</g></svg>