<svg xmlns="http://www.w3.org/2000/svg" width="572" height="700" viewBox="0 0 572 700"><rect x="0" y="0" width="572" height="700" fill="#0b0f14"/><text x="30" y="20" fill="#cfe6ff" font-family="Inter, Segoe UI, Arial" font-size="12">Fourth Floor South</text><g font-family="Inter, Segoe UI, Arial" font-size="10"><g id="TMC01050" class="seat">  <rect x="224" y="32" width="60" height="36" rx="6" ry="6" fill="#5b6778" stroke="#223"/>
  <text x="254.0" y="53.0" text-anchor="middle" fill="#e8f0f6">TMC01050</text>
</g><g id="TMC01035" class="seat">  <rect x="288" y="32" width="60" height="36" rx="6" ry="6" fill="#5b6778" stroke="#223"/>
  <text x="318.0" y="53.0" text-anchor="middle" fill="#e8f0f6">TMC01035</text>
</g><g id="TMC00633" class="seat">  <rect x="32" y="72" width="60" height="36" rx="6" ry="6" fill="#5b6778" stroke="#223"/>
  <text x="62.0" y="93.0" text-anchor="middle" fill="#e8f0f6">TMC00633</text>
</g><g id="TMC01231" class="seat">  <rect x="32" y="112" width="60" height="36" rx="6" ry="6" fill="#5b6778" stroke="#223"/>
  <text x="62.0" y="133.0" text-anchor="middle" fill="#e8f0f6">TMC01231</text>
</g><g id="TMC01052" class="seat">  <rect x="96" y="112" width="60" height="36" rx="6" ry="6" fill="#5b6778" stroke="#223"/>
  <text x="126.0" y="133.0" text-anchor="middle" fill="#e8f0f6">TMC01052</text>
</g><g id="TMC01049" class="seat">  <rect x="224" y="112" width="60" height="36" rx="6" ry="6" fill="#5b6778" stroke="#223"/>
  <text x="254.0" y="133.0" text-anchor="middle" fill="#e8f0f6">TMC01049</text>
</g><g id="TMC01044" class="seat">  <rect x="288" y="112" width="60" height="36" rx="6" ry="6" fill="#5b6778" stroke="#223"/>
  <text x="318.0" y="133.0" text-anchor="middle" fill="#e8f0f6">TMC01044</text>
</g><g id="TMC01054" class="seat">  <rect x="32" y="192" width="60" height="36" rx="6" ry="6" fill="#5b6778" stroke="#223"/>
  <text x="62.0" y="213.0" text-anchor="middle" fill="#e8f0f6">TMC01054</text>
</g><g id="TMC01051" class="seat">  <rect x="96" y="192" width="60" height="36" rx="6" ry="6" fill="#5b6778" stroke="#223"/>
  <text x="126.0" y="213.0" text-anchor="middle" fill="#e8f0f6">TMC01051</text>
</g><g id="TMC01048" class="seat">  <rect x="224" y="192" width="60" height="36" rx="6" ry="6" fill="#5b6778" stroke="#223"/>
  <text x="254.0" y="213.0" text-anchor="middle" fill="#e8f0f6">TMC01048</text>
</g><g id="TMC01045" class="seat">  <rect x="288" y="192" width="60" height="36" rx="6" ry="6" fill="#5b6778" stroke="#223"/>
  <text x="318.0" y="213.0" text-anchor="middle" fill="#e8f0f6">TMC01045</text>
</g><g id="TMC01047" class="seat">  <rect x="224" y="272" width="60" height="36" rx="6" ry="6" fill="#5b6778" stroke="#223"/>
  <text x="254.0" y="293.0" text-anchor="middle" fill="#e8f0f6">TMC01047</text>
</g><g id="TMC01046" class="seat">  <rect x="288" y="272" width="60" height="36" rx="6" ry="6" fill="#5b6778" stroke="#223"/>
  <text x="318.0" y="293.0" text-anchor="middle" fill="#e8f0f6">TMC01046</text>
</g><g id="TMC01055" class="seat">  <rect x="32" y="392" width="60" height="36" rx="6" ry="6" fill="#5b6778" stroke="#223"/>
  <text x="62.0" y="413.0" text-anchor="middle" fill="#e8f0f6">TMC01055</text>
</g><g id="TMC01059" class="seat">  <rect x="96" y="392" width="60" height="36" rx="6" ry="6" fill="#5b6778" stroke="#223"/>
  <text x="126.0" y="413.0" text-anchor="middle" fill="#e8f0f6">TMC01059</text>
</g><g id="TMC01056" class="seat">  <rect x="32" y="472" width="60" height="36" rx="6" ry="6" fill="#5b6778" stroke="#223"/>
  <text x="62.0" y="493.0" text-anchor="middle" fill="#e8f0f6">TMC01056</text>
</g><g id="TMC01060" class="seat">  <rect x="96" y="472" width="60" height="36" rx="6" ry="6" fill="#5b6778" stroke="#223"/>
  <text x="126.0" y="493.0" text-anchor="middle" fill="#e8f0f6">TMC01060</text>
</g><g id="TMC01064" class="seat">  <rect x="224" y="472" width="60" height="36" rx="6" ry="6" fill="#5b6778" stroke="#223"/>
  <text x="254.0" y="493.0" text-anchor="middle" fill="#e8f0f6">TMC01064</text>
</g><g id="TMC01065" class="seat">  <rect x="288" y="472" width="60" height="36" rx="6" ry="6" fill="#5b6778" stroke="#223"/>
  <text x="318.0" y="493.0" text-anchor="middle" fill="#e8f0f6">TMC01065</text>
</g><g id="TMC01057" class="seat">  <rect x="32" y="552" width="60" height="36" rx="6" ry="6" fill="#5b6778" stroke="#223"/>
  <text x="62.0" y="573.0" text-anchor="middle" fill="#e8f0f6">TMC01057</text>
</g><g id="TMC01061" class="seat">  <rect x="96" y="552" width="60" height="36" rx="6" ry="6" fill="#5b6778" stroke="#223"/>
  <text x="126.0" y="573.0" text-anchor="middle" fill="#e8f0f6">TMC01061</text>
</g><g id="TMC01063" class="seat">  <rect x="224" y="552" width="60" height="36" rx="6" ry="6" fill="#5b6778" stroke="#223"/>
  <text x="254.0" y="573.0" text-anchor="middle" fill="#e8f0f6">TMC01063</text>
</g><g id="TMC01066" class="seat">  <rect x="288" y="552" width="60" height="36" rx="6" ry="6" fill="#5b6778" stroke="#223"/>
  <text x="318.0" y="573.0" text-anchor="middle" fill="#e8f0f6">TMC01066</text>
</g><g id="TMC00837" class="seat">  <rect x="480" y="552" width="60" height="36" rx="6" ry="6" fill="#5b6778" stroke="#223"/>
  <text x="510.0" y="573.0" text-anchor="middle" fill="#e8f0f6">TMC00837</text>
</g><g id="TMC00846" class="seat">  <rect x="480" y="592" width="60" height="36" rx="6" ry="6" fill="#5b6778" stroke="#223"/>
  <text x="510.0" y="613.0" text-anchor="middle" fill="#e8f0f6">TMC00846</text>
</g><g id="TMC01058" class="seat">  <rect x="32" y="632" width="60" height="36" rx="6" ry="6" fill="#5b6778" stroke="#223"/>
  <text x="62.0" y="653.0" text-anchor="middle" fill="#e8f0f6">TMC01058</text>
</g><g id="TMC01062" class="seat">  <rect x="96" y="632" width="60" height="36" rx="6" ry="6" fill="#5b6778" stroke="#223"/>
  <text x="126.0" y="653.0" text-anchor="middle" fill="#e8f0f6">TMC01062</text>
</g><g id="TMC00949" class="seat">  <rect x="224" y="632" width="60" height="36" rx="6" ry="6" fill="#5b6778" stroke="#223"/>
  <text x="254.0" y="653.0" text-anchor="middle" fill="#e8f0f6">TMC00949</text>
</g></g></svg>