<svg xmlns="http://www.w3.org/2000/svg" width="496" height="380" viewBox="0 0 496 380"><rect x="0" y="0" width="496" height="380" fill="#0b0f14"/><text x="30" y="20" fill="#cfe6ff" font-family="Inter, Segoe UI, Arial" font-size="12">Fourth Floor North</text><g font-family="Inter, Segoe UI, Arial" font-size="10"><g id="TMC00951" class="seat">  <rect x="32" y="32" width="48" height="36" rx="6" ry="6" fill="#5b6778" stroke="#223"/>
  <text x="56.0" y="53.0" text-anchor="middle" fill="#e8f0f6">TMC00951</text>
</g><g id="TMC00839" class="seat">  <rect x="84" y="32" width="60" height="36" rx="6" ry="6" fill="#5b6778" stroke="#223"/>
  <text x="114.0" y="53.0" text-anchor="middle" fill="#e8f0f6">TMC00839</text>
</g><g id="TMC01136" class="seat">  <rect x="148" y="32" width="60" height="36" rx="6" ry="6" fill="#5b6778" stroke="#223"/>
  <text x="178.0" y="53.0" text-anchor="middle" fill="#e8f0f6">TMC01136</text>
</g><g id="TMC01135" class="seat">  <rect x="276" y="32" width="60" height="36" rx="6" ry="6" fill="#5b6778" stroke="#223"/>
  <text x="306.0" y="53.0" text-anchor="middle" fill="#e8f0f6">TMC01135</text>
</g><g id="TMC01134" class="seat">  <rect x="404" y="32" width="60" height="36" rx="6" ry="6" fill="#5b6778" stroke="#223"/>
  <text x="434.0" y="53.0" text-anchor="middle" fill="#e8f0f6">TMC01134</text>
</g><g id="TMC01131" class="seat">  <rect x="148" y="72" width="60" height="36" rx="6" ry="6" fill="#5b6778" stroke="#223"/>
  <text x="178.0" y="93.0" text-anchor="middle" fill="#e8f0f6">TMC01131</text>
</g><g id="TMC01132" class="seat">  <rect x="276" y="72" width="60" height="36" rx="6" ry="6" fill="#5b6778" stroke="#223"/>
  <text x="306.0" y="93.0" text-anchor="middle" fill="#e8f0f6">TMC01132</text>
</g><g id="TMC01133" class="seat">  <rect x="404" y="72" width="60" height="36" rx="6" ry="6" fill="#5b6778" stroke="#223"/>
  <text x="434.0" y="93.0" text-anchor="middle" fill="#e8f0f6">TMC01133</text>
</g><g id="TMC01130" class="seat">  <rect x="32" y="152" width="48" height="36" rx="6" ry="6" fill="#5b6778" stroke="#223"/>
  <text x="56.0" y="173.0" text-anchor="middle" fill="#e8f0f6">TMC01130</text>
</g><g id="TMC01129" class="seat">  <rect x="148" y="152" width="60" height="36" rx="6" ry="6" fill="#5b6778" stroke="#223"/>
  <text x="178.0" y="173.0" text-anchor="middle" fill="#e8f0f6">TMC01129</text>
</g><g id="TMC01128" class="seat">  <rect x="276" y="152" width="60" height="36" rx="6" ry="6" fill="#5b6778" stroke="#223"/>
  <text x="306.0" y="173.0" text-anchor="middle" fill="#e8f0f6">TMC01128</text>
</g><g id="TMC01127" class="seat">  <rect x="404" y="152" width="60" height="36" rx="6" ry="6" fill="#5b6778" stroke="#223"/>
  <text x="434.0" y="173.0" text-anchor="middle" fill="#e8f0f6">TMC01127</text>
</g><g id="TMC01123" class="seat">  <rect x="32" y="192" width="48" height="36" rx="6" ry="6" fill="#5b6778" stroke="#223"/>
  <text x="56.0" y="213.0" text-anchor="middle" fill="#e8f0f6">TMC01123</text>
</g><g id="TMC01124" class="seat">  <rect x="148" y="192" width="60" height="36" rx="6" ry="6" fill="#5b6778" stroke="#223"/>
  <text x="178.0" y="213.0" text-anchor="middle" fill="#e8f0f6">TMC01124</text>
</g><g id="TMC01125" class="seat">  <rect x="276" y="192" width="60" height="36" rx="6" ry="6" fill="#5b6778" stroke="#223"/>
  <text x="306.0" y="213.0" text-anchor="middle" fill="#e8f0f6">TMC01125</text>
</g><g id="TMC01126" class="seat">  <rect x="404" y="192" width="60" height="36" rx="6" ry="6" fill="#5b6778" stroke="#223"/>
  <text x="434.0" y="213.0" text-anchor="middle" fill="#e8f0f6">TMC01126</text>
</g><g id="TMC00893" class="seat">  <rect x="32" y="272" width="48" height="36" rx="6" ry="6" fill="#5b6778" stroke="#223"/>
  <text x="56.0" y="293.0" text-anchor="middle" fill="#e8f0f6">TMC00893</text>
</g><g id="TMC00836" class="seat">  <rect x="84" y="272" width="60" height="36" rx="6" ry="6" fill="#5b6778" stroke="#223"/>
  <text x="114.0" y="293.0" text-anchor="middle" fill="#e8f0f6">TMC00836</text>
</g><g id="TMC01122" class="seat">  <rect x="148" y="272" width="60" height="36" rx="6" ry="6" fill="#5b6778" stroke="#223"/>
  <text x="178.0" y="293.0" text-anchor="middle" fill="#e8f0f6">TMC01122</text>
</g><g id="TMC01121" class="seat">  <rect x="276" y="272" width="60" height="36" rx="6" ry="6" fill="#5b6778" stroke="#223"/>
  <text x="306.0" y="293.0" text-anchor="middle" fill="#e8f0f6">TMC01121</text>
</g><g id="TMC01120" class="seat">  <rect x="404" y="272" width="60" height="36" rx="6" ry="6" fill="#5b6778" stroke="#223"/>
  <text x="434.0" y="293.0" text-anchor="middle" fill="#e8f0f6">TMC01120</text>
</g><g id="TMC01117" class="seat">  <rect x="148" y="312" width="60" height="36" rx="6" ry="6" fill="#5b6778" stroke="#223"/>
  <text x="178.0" y="333.0" text-anchor="middle" fill="#e8f0f6">TMC01117</text>
</g><g id="TMC01118" class="seat">  <rect x="276" y="312" width="60" height="36" rx="6" ry="6" fill="#5b6778" stroke="#223"/>
  <text x="306.0" y="333.0" text-anchor="middle" fill="#e8f0f6">TMC01118</text>
</g><g id="TMC01119" class="seat">  <rect x="404" y="312" width="60" height="36" rx="6" ry="6" fill="#5b6778" stroke="#223"/>
  <text x="434.0" y="333.0" text-anchor="middle" fill="#e8f0f6">TMC01119</text>
</g></g></svg>