<svg xmlns="http://www.w3.org/2000/svg" width="450" height="404" viewBox="0 0 450 404"><rect x="0" y="0" width="450" height="404" fill="#0b0f14"/><text x="30" y="20" fill="#cfe6ff" font-family="Inter, Segoe UI, Arial" font-size="12">Second Floor North</text><g font-family="Inter, Segoe UI, Arial" font-size="10"><g id="TMC01015" class="seat">  <rect x="84" y="32" width="60" height="39" rx="6" ry="6" fill="#5b6778" stroke="#223"/>
  <text x="114.0" y="54.5" text-anchor="middle" fill="#e8f0f6">TMC01015</text>
</g><g id="TMC01163" class="seat">  <rect x="148" y="32" width="90" height="39" rx="6" ry="6" fill="#5b6778" stroke="#223"/>
  <text x="193.0" y="54.5" text-anchor="middle" fill="#e8f0f6">TMC01163</text>
</g><g id="TMC01162" class="seat">  <rect x="242" y="32" width="60" height="39" rx="6" ry="6" fill="#5b6778" stroke="#223"/>
  <text x="272.0" y="54.5" text-anchor="middle" fill="#e8f0f6">TMC01162</text>
</g><g id="TMC01161" class="seat">  <rect x="306" y="32" width="60" height="39" rx="6" ry="6" fill="#5b6778" stroke="#223"/>
  <text x="336.0" y="54.5" text-anchor="middle" fill="#e8f0f6">TMC01161</text>
</g><g id="TMC01160" class="seat">  <rect x="370" y="32" width="48" height="39" rx="6" ry="6" fill="#5b6778" stroke="#223"/>
  <text x="394.0" y="54.5" text-anchor="middle" fill="#e8f0f6">TMC01160</text>
</g><g id="TMC01156" class="seat">  <rect x="148" y="75" width="90" height="39" rx="6" ry="6" fill="#5b6778" stroke="#223"/>
  <text x="193.0" y="97.5" text-anchor="middle" fill="#e8f0f6">TMC01156</text>
</g><g id="TMC01157" class="seat">  <rect x="242" y="75" width="60" height="39" rx="6" ry="6" fill="#5b6778" stroke="#223"/>
  <text x="272.0" y="97.5" text-anchor="middle" fill="#e8f0f6">TMC01157</text>
</g><g id="TMC01158" class="seat">  <rect x="306" y="75" width="60" height="39" rx="6" ry="6" fill="#5b6778" stroke="#223"/>
  <text x="336.0" y="97.5" text-anchor="middle" fill="#e8f0f6">TMC01158</text>
</g><g id="TMC01159" class="seat">  <rect x="370" y="75" width="48" height="39" rx="6" ry="6" fill="#5b6778" stroke="#223"/>
  <text x="394.0" y="97.5" text-anchor="middle" fill="#e8f0f6">TMC01159</text>
</g><g id="TMC01155" class="seat">  <rect x="32" y="161" width="48" height="39" rx="6" ry="6" fill="#5b6778" stroke="#223"/>
  <text x="56.0" y="183.5" text-anchor="middle" fill="#e8f0f6">TMC01155</text>
</g><g id="TMC01154" class="seat">  <rect x="148" y="161" width="90" height="39" rx="6" ry="6" fill="#5b6778" stroke="#223"/>
  <text x="193.0" y="183.5" text-anchor="middle" fill="#e8f0f6">TMC01154</text>
</g><g id="TMC01153" class="seat">  <rect x="242" y="161" width="60" height="39" rx="6" ry="6" fill="#5b6778" stroke="#223"/>
  <text x="272.0" y="183.5" text-anchor="middle" fill="#e8f0f6">TMC01153</text>
</g><g id="TMC01152" class="seat">  <rect x="306" y="161" width="60" height="39" rx="6" ry="6" fill="#5b6778" stroke="#223"/>
  <text x="336.0" y="183.5" text-anchor="middle" fill="#e8f0f6">TMC01152</text>
</g><g id="TMC01151" class="seat">  <rect x="370" y="161" width="48" height="39" rx="6" ry="6" fill="#5b6778" stroke="#223"/>
  <text x="394.0" y="183.5" text-anchor="middle" fill="#e8f0f6">TMC01151</text>
</g><g id="TMC01146" class="seat">  <rect x="32" y="204" width="48" height="39" rx="6" ry="6" fill="#5b6778" stroke="#223"/>
  <text x="56.0" y="226.5" text-anchor="middle" fill="#e8f0f6">TMC01146</text>
</g><g id="TMC01147" class="seat">  <rect x="148" y="204" width="90" height="39" rx="6" ry="6" fill="#5b6778" stroke="#223"/>
  <text x="193.0" y="226.5" text-anchor="middle" fill="#e8f0f6">TMC01147</text>
</g><g id="TMC01148" class="seat">  <rect x="242" y="204" width="60" height="39" rx="6" ry="6" fill="#5b6778" stroke="#223"/>
  <text x="272.0" y="226.5" text-anchor="middle" fill="#e8f0f6">TMC01148</text>
</g><g id="TMC01149" class="seat">  <rect x="306" y="204" width="60" height="39" rx="6" ry="6" fill="#5b6778" stroke="#223"/>
  <text x="336.0" y="226.5" text-anchor="middle" fill="#e8f0f6">TMC01149</text>
</g><g id="TMC01150" class="seat">  <rect x="370" y="204" width="48" height="39" rx="6" ry="6" fill="#5b6778" stroke="#223"/>
  <text x="394.0" y="226.5" text-anchor="middle" fill="#e8f0f6">TMC01150</text>
</g><g id="TMC01016" class="seat">  <rect x="84" y="290" width="60" height="39" rx="6" ry="6" fill="#5b6778" stroke="#223"/>
  <text x="114.0" y="312.5" text-anchor="middle" fill="#e8f0f6">TMC01016</text>
</g><g id="TMC01145" class="seat">  <rect x="148" y="290" width="90" height="39" rx="6" ry="6" fill="#5b6778" stroke="#223"/>
  <text x="193.0" y="312.5" text-anchor="middle" fill="#e8f0f6">TMC01145</text>
</g><g id="TMC01144" class="seat">  <rect x="242" y="290" width="60" height="39" rx="6" ry="6" fill="#5b6778" stroke="#223"/>
  <text x="272.0" y="312.5" text-anchor="middle" fill="#e8f0f6">TMC01144</text>
</g><g id="TMC01143" class="seat">  <rect x="306" y="290" width="60" height="39" rx="6" ry="6" fill="#5b6778" stroke="#223"/>
  <text x="336.0" y="312.5" text-anchor="middle" fill="#e8f0f6">TMC01143</text>
</g><g id="TMC01142" class="seat">  <rect x="370" y="290" width="48" height="39" rx="6" ry="6" fill="#5b6778" stroke="#223"/>
  <text x="394.0" y="312.5" text-anchor="middle" fill="#e8f0f6">TMC01142</text>
</g><g id="TMC01138" class="seat">  <rect x="148" y="333" width="90" height="39" rx="6" ry="6" fill="#5b6778" stroke="#223"/>
  <text x="193.0" y="355.5" text-anchor="middle" fill="#e8f0f6">TMC01138</text>
</g><g id="TMC01139" class="seat">  <rect x="242" y="333" width="60" height="39" rx="6" ry="6" fill="#5b6778" stroke="#223"/>
  <text x="272.0" y="355.5" text-anchor="middle" fill="#e8f0f6">TMC01139</text>
</g><g id="TMC01140" class="seat">  <rect x="306" y="333" width="60" height="39" rx="6" ry="6" fill="#5b6778" stroke="#223"/>
  <text x="336.0" y="355.5" text-anchor="middle" fill="#e8f0f6">TMC01140</text>
</g><g id="TMC01141" class="seat">  <rect x="370" y="333" width="48" height="39" rx="6" ry="6" fill="#5b6778" stroke="#223"/>
  <text x="394.0" y="355.5" text-anchor="middle" fill="#e8f0f6">TMC01141</text>
</g></g></svg>