<svg xmlns="http://www.w3.org/2000/svg" width="892" height="540" viewBox="0 0 892 540"><rect x="0" y="0" width="892" height="540" fill="#0b0f14"/><text x="30" y="20" fill="#cfe6ff" font-family="Inter, Segoe UI, Arial" font-size="12">Second Floor South</text><g font-family="Inter, Segoe UI, Arial" font-size="10"><g id="TMC01014" class="seat">  <rect x="32" y="32" width="60" height="36" rx="6" ry="6" fill="#5b6778" stroke="#223"/>
  <text x="62.0" y="53.0" text-anchor="middle" fill="#e8f0f6">TMC01014</text>
</g><g id="TMC01094" class="seat">  <rect x="96" y="32" width="60" height="36" rx="6" ry="6" fill="#5b6778" stroke="#223"/>
  <text x="126.0" y="53.0" text-anchor="middle" fill="#e8f0f6">TMC01094</text>
</g><g id="TMC01095" class="seat">  <rect x="224" y="32" width="60" height="36" rx="6" ry="6" fill="#5b6778" stroke="#223"/>
  <text x="254.0" y="53.0" text-anchor="middle" fill="#e8f0f6">TMC01095</text>
</g><g id="TMC01105" class="seat">  <rect x="288" y="32" width="60" height="36" rx="6" ry="6" fill="#5b6778" stroke="#223"/>
  <text x="318.0" y="53.0" text-anchor="middle" fill="#e8f0f6">TMC01105</text>
</g><g id="TMC01107" class="seat">  <rect x="480" y="72" width="60" height="36" rx="6" ry="6" fill="#5b6778" stroke="#223"/>
  <text x="510.0" y="93.0" text-anchor="middle" fill="#e8f0f6">TMC01107</text>
</g><g id="TMC01106" class="seat">  <rect x="608" y="72" width="60" height="36" rx="6" ry="6" fill="#5b6778" stroke="#223"/>
  <text x="638.0" y="93.0" text-anchor="middle" fill="#e8f0f6">TMC01106</text>
</g><g id="TMC00947" class="seat">  <rect x="736" y="72" width="60" height="36" rx="6" ry="6" fill="#5b6778" stroke="#223"/>
  <text x="766.0" y="93.0" text-anchor="middle" fill="#e8f0f6">TMC00947</text>
</g><g id="TMC00801" class="seat">  <rect x="32" y="112" width="60" height="36" rx="6" ry="6" fill="#5b6778" stroke="#223"/>
  <text x="62.0" y="133.0" text-anchor="middle" fill="#e8f0f6">TMC00801</text>
</g><g id="TMC01093" class="seat">  <rect x="96" y="112" width="60" height="36" rx="6" ry="6" fill="#5b6778" stroke="#223"/>
  <text x="126.0" y="133.0" text-anchor="middle" fill="#e8f0f6">TMC01093</text>
</g><g id="TMC01096" class="seat">  <rect x="224" y="112" width="60" height="36" rx="6" ry="6" fill="#5b6778" stroke="#223"/>
  <text x="254.0" y="133.0" text-anchor="middle" fill="#e8f0f6">TMC01096</text>
</g><g id="TMC01104" class="seat">  <rect x="288" y="112" width="60" height="36" rx="6" ry="6" fill="#5b6778" stroke="#223"/>
  <text x="318.0" y="133.0" text-anchor="middle" fill="#e8f0f6">TMC01104</text>
</g><g id="TMC01108" class="seat">  <rect x="480" y="112" width="60" height="36" rx="6" ry="6" fill="#5b6778" stroke="#223"/>
  <text x="510.0" y="133.0" text-anchor="middle" fill="#e8f0f6">TMC01108</text>
</g><g id="TMC01109" class="seat">  <rect x="608" y="112" width="60" height="36" rx="6" ry="6" fill="#5b6778" stroke="#223"/>
  <text x="638.0" y="133.0" text-anchor="middle" fill="#e8f0f6">TMC01109</text>
</g><g id="TMC01098" class="seat">  <rect x="32" y="192" width="60" height="36" rx="6" ry="6" fill="#5b6778" stroke="#223"/>
  <text x="62.0" y="213.0" text-anchor="middle" fill="#e8f0f6">TMC01098</text>
</g><g id="TMC01102" class="seat">  <rect x="96" y="192" width="60" height="36" rx="6" ry="6" fill="#5b6778" stroke="#223"/>
  <text x="126.0" y="213.0" text-anchor="middle" fill="#e8f0f6">TMC01102</text>
</g><g id="TMC01097" class="seat">  <rect x="224" y="192" width="60" height="36" rx="6" ry="6" fill="#5b6778" stroke="#223"/>
  <text x="254.0" y="213.0" text-anchor="middle" fill="#e8f0f6">TMC01097</text>
</g><g id="TMC01103" class="seat">  <rect x="288" y="192" width="60" height="36" rx="6" ry="6" fill="#5b6778" stroke="#223"/>
  <text x="318.0" y="213.0" text-anchor="middle" fill="#e8f0f6">TMC01103</text>
</g><g id="TMC01113" class="seat">  <rect x="416" y="192" width="60" height="36" rx="6" ry="6" fill="#5b6778" stroke="#223"/>
  <text x="446.0" y="213.0" text-anchor="middle" fill="#e8f0f6">TMC01113</text>
</g><g id="TMC01112" class="seat">  <rect x="544" y="192" width="60" height="36" rx="6" ry="6" fill="#5b6778" stroke="#223"/>
  <text x="574.0" y="213.0" text-anchor="middle" fill="#e8f0f6">TMC01112</text>
</g><g id="TMC01111" class="seat">  <rect x="672" y="192" width="60" height="36" rx="6" ry="6" fill="#5b6778" stroke="#223"/>
  <text x="702.0" y="213.0" text-anchor="middle" fill="#e8f0f6">TMC01111</text>
</g><g id="TMC01110" class="seat">  <rect x="800" y="192" width="60" height="36" rx="6" ry="6" fill="#5b6778" stroke="#223"/>
  <text x="830.0" y="213.0" text-anchor="middle" fill="#e8f0f6">TMC01110</text>
</g><g id="TMC01114" class="seat">  <rect x="416" y="232" width="60" height="36" rx="6" ry="6" fill="#5b6778" stroke="#223"/>
  <text x="446.0" y="253.0" text-anchor="middle" fill="#e8f0f6">TMC01114</text>
</g><g id="TMC01115" class="seat">  <rect x="544" y="232" width="60" height="36" rx="6" ry="6" fill="#5b6778" stroke="#223"/>
  <text x="574.0" y="253.0" text-anchor="middle" fill="#e8f0f6">TMC01115</text>
</g><g id="TMC01116" class="seat">  <rect x="672" y="232" width="60" height="36" rx="6" ry="6" fill="#5b6778" stroke="#223"/>
  <text x="702.0" y="253.0" text-anchor="middle" fill="#e8f0f6">TMC01116</text>
</g><g id="TMC01018" class="seat">  <rect x="800" y="232" width="60" height="36" rx="6" ry="6" fill="#5b6778" stroke="#223"/>
  <text x="830.0" y="253.0" text-anchor="middle" fill="#e8f0f6">TMC01018</text>
</g><g id="TMC01099" class="seat">  <rect x="32" y="272" width="60" height="36" rx="6" ry="6" fill="#5b6778" stroke="#223"/>
  <text x="62.0" y="293.0" text-anchor="middle" fill="#e8f0f6">TMC01099</text>
</g><g id="TMC01101" class="seat">  <rect x="96" y="272" width="60" height="36" rx="6" ry="6" fill="#5b6778" stroke="#223"/>
  <text x="126.0" y="293.0" text-anchor="middle" fill="#e8f0f6">TMC01101</text>
</g><g id="TMC01100" class="seat">  <rect x="32" y="352" width="60" height="76" rx="6" ry="6" fill="#5b6778" stroke="#223"/>
  <text x="62.0" y="393.0" text-anchor="middle" fill="#e8f0f6">TMC01100</text>
</g><g id="TMC00843" class="seat">  <rect x="96" y="352" width="60" height="76" rx="6" ry="6" fill="#5b6778" stroke="#223"/>
  <text x="126.0" y="393.0" text-anchor="middle" fill="#e8f0f6">TMC00843</text>
</g><g id="TMC01013" class="seat">  <rect x="32" y="472" width="60" height="36" rx="6" ry="6" fill="#5b6778" stroke="#223"/>
  <text x="62.0" y="493.0" text-anchor="middle" fill="#e8f0f6">TMC01013</text>
</g></g></svg>