<svg xmlns="http://www.w3.org/2000/svg" width="944" height="540" viewBox="0 0 944 540"><rect x="0" y="0" width="944" height="540" fill="#0b0f14"/><text x="30" y="20" fill="#cfe6ff" font-family="Inter, Segoe UI, Arial" font-size="12">Third Floor South</text><g font-family="Inter, Segoe UI, Arial" font-size="10"><g id="TMC01024" class="seat">  <rect x="84" y="32" width="60" height="36" rx="6" ry="6" fill="#5b6778" stroke="#223"/>
  <text x="114.0" y="53.0" text-anchor="middle" fill="#e8f0f6">TMC01024</text>
</g><g id="TMC00856" class="seat">  <rect x="148" y="32" width="60" height="36" rx="6" ry="6" fill="#5b6778" stroke="#223"/>
  <text x="178.0" y="53.0" text-anchor="middle" fill="#e8f0f6">TMC00856</text>
</g><g id="TMC00866" class="seat">  <rect x="276" y="32" width="60" height="36" rx="6" ry="6" fill="#5b6778" stroke="#223"/>
  <text x="306.0" y="53.0" text-anchor="middle" fill="#e8f0f6">TMC00866</text>
</g><g id="TMC00861" class="seat">  <rect x="340" y="32" width="60" height="36" rx="6" ry="6" fill="#5b6778" stroke="#223"/>
  <text x="370.0" y="53.0" text-anchor="middle" fill="#e8f0f6">TMC00861</text>
</g><g id="TMC00919" class="seat">  <rect x="532" y="72" width="60" height="36" rx="6" ry="6" fill="#5b6778" stroke="#223"/>
  <text x="562.0" y="93.0" text-anchor="middle" fill="#e8f0f6">TMC00919</text>
</g><g id="TMC01022" class="seat">  <rect x="660" y="72" width="60" height="36" rx="6" ry="6" fill="#5b6778" stroke="#223"/>
  <text x="690.0" y="93.0" text-anchor="middle" fill="#e8f0f6">TMC01022</text>
</g><g id="TMC01009" class="seat">  <rect x="788" y="72" width="60" height="36" rx="6" ry="6" fill="#5b6778" stroke="#223"/>
  <text x="818.0" y="93.0" text-anchor="middle" fill="#e8f0f6">TMC01009</text>
</g><g id="TMC00854" class="seat">  <rect x="84" y="112" width="60" height="36" rx="6" ry="6" fill="#5b6778" stroke="#223"/>
  <text x="114.0" y="133.0" text-anchor="middle" fill="#e8f0f6">TMC00854</text>
</g><g id="TMC00857" class="seat">  <rect x="148" y="112" width="60" height="36" rx="6" ry="6" fill="#5b6778" stroke="#223"/>
  <text x="178.0" y="133.0" text-anchor="middle" fill="#e8f0f6">TMC00857</text>
</g><g id="TMC00865" class="seat">  <rect x="276" y="112" width="60" height="36" rx="6" ry="6" fill="#5b6778" stroke="#223"/>
  <text x="306.0" y="133.0" text-anchor="middle" fill="#e8f0f6">TMC00865</text>
</g><g id="TMC00862" class="seat">  <rect x="340" y="112" width="60" height="36" rx="6" ry="6" fill="#5b6778" stroke="#223"/>
  <text x="370.0" y="133.0" text-anchor="middle" fill="#e8f0f6">TMC00862</text>
</g><g id="TMC00870" class="seat">  <rect x="532" y="112" width="60" height="36" rx="6" ry="6" fill="#5b6778" stroke="#223"/>
  <text x="562.0" y="133.0" text-anchor="middle" fill="#e8f0f6">TMC00870</text>
</g><g id="TMC00869" class="seat">  <rect x="660" y="112" width="60" height="36" rx="6" ry="6" fill="#5b6778" stroke="#223"/>
  <text x="690.0" y="133.0" text-anchor="middle" fill="#e8f0f6">TMC00869</text>
</g><g id="TMC00853" class="seat">  <rect x="84" y="192" width="60" height="36" rx="6" ry="6" fill="#5b6778" stroke="#223"/>
  <text x="114.0" y="213.0" text-anchor="middle" fill="#e8f0f6">TMC00853</text>
</g><g id="TMC00858" class="seat">  <rect x="148" y="192" width="60" height="36" rx="6" ry="6" fill="#5b6778" stroke="#223"/>
  <text x="178.0" y="213.0" text-anchor="middle" fill="#e8f0f6">TMC00858</text>
</g><g id="TMC00863" class="seat">  <rect x="276" y="192" width="60" height="36" rx="6" ry="6" fill="#5b6778" stroke="#223"/>
  <text x="306.0" y="213.0" text-anchor="middle" fill="#e8f0f6">TMC00863</text>
</g><g id="TMC00855" class="seat">  <rect x="340" y="192" width="60" height="36" rx="6" ry="6" fill="#5b6778" stroke="#223"/>
  <text x="370.0" y="213.0" text-anchor="middle" fill="#e8f0f6">TMC00855</text>
</g><g id="TMC00875" class="seat">  <rect x="468" y="192" width="60" height="36" rx="6" ry="6" fill="#5b6778" stroke="#223"/>
  <text x="498.0" y="213.0" text-anchor="middle" fill="#e8f0f6">TMC00875</text>
</g><g id="TMC00876" class="seat">  <rect x="596" y="192" width="60" height="36" rx="6" ry="6" fill="#5b6778" stroke="#223"/>
  <text x="626.0" y="213.0" text-anchor="middle" fill="#e8f0f6">TMC00876</text>
</g><g id="TMC00877" class="seat">  <rect x="724" y="192" width="60" height="36" rx="6" ry="6" fill="#5b6778" stroke="#223"/>
  <text x="754.0" y="213.0" text-anchor="middle" fill="#e8f0f6">TMC00877</text>
</g><g id="TMC00878" class="seat">  <rect x="852" y="192" width="60" height="36" rx="6" ry="6" fill="#5b6778" stroke="#223"/>
  <text x="882.0" y="213.0" text-anchor="middle" fill="#e8f0f6">TMC00878</text>
</g><g id="TMC00874" class="seat">  <rect x="468" y="232" width="60" height="36" rx="6" ry="6" fill="#5b6778" stroke="#223"/>
  <text x="498.0" y="253.0" text-anchor="middle" fill="#e8f0f6">TMC00874</text>
</g><g id="TMC00873" class="seat">  <rect x="596" y="232" width="60" height="36" rx="6" ry="6" fill="#5b6778" stroke="#223"/>
  <text x="626.0" y="253.0" text-anchor="middle" fill="#e8f0f6">TMC00873</text>
</g><g id="TMC00872" class="seat">  <rect x="724" y="232" width="60" height="36" rx="6" ry="6" fill="#5b6778" stroke="#223"/>
  <text x="754.0" y="253.0" text-anchor="middle" fill="#e8f0f6">TMC00872</text>
</g><g id="TMC00871" class="seat">  <rect x="852" y="232" width="60" height="36" rx="6" ry="6" fill="#5b6778" stroke="#223"/>
  <text x="882.0" y="253.0" text-anchor="middle" fill="#e8f0f6">TMC00871</text>
</g><g id="TMC00852" class="seat">  <rect x="84" y="272" width="60" height="36" rx="6" ry="6" fill="#5b6778" stroke="#223"/>
  <text x="114.0" y="293.0" text-anchor="middle" fill="#e8f0f6">TMC00852</text>
</g><g id="TMC00859" class="seat">  <rect x="148" y="272" width="60" height="36" rx="6" ry="6" fill="#5b6778" stroke="#223"/>
  <text x="178.0" y="293.0" text-anchor="middle" fill="#e8f0f6">TMC00859</text>
</g><g id="TMC00851" class="seat">  <rect x="84" y="352" width="60" height="76" rx="6" ry="6" fill="#5b6778" stroke="#223"/>
  <text x="114.0" y="393.0" text-anchor="middle" fill="#e8f0f6">TMC00851</text>
</g><g id="TMC00860" class="seat">  <rect x="148" y="352" width="60" height="76" rx="6" ry="6" fill="#5b6778" stroke="#223"/>
  <text x="178.0" y="393.0" text-anchor="middle" fill="#e8f0f6">TMC00860</text>
</g><g id="TMC01026" class="seat">  <rect x="32" y="472" width="48" height="36" rx="6" ry="6" fill="#5b6778" stroke="#223"/>
  <text x="56.0" y="493.0" text-anchor="middle" fill="#e8f0f6">TMC01026</text>
</g><g id="TMC00945" class="seat">  <rect x="148" y="472" width="60" height="36" rx="6" ry="6" fill="#5b6778" stroke="#223"/>
  <text x="178.0" y="493.0" text-anchor="middle" fill="#e8f0f6">TMC00945</text>
</g></g></svg>