<svg xmlns="http://www.w3.org/2000/svg" width="450" height="380" viewBox="0 0 450 380"><rect x="0" y="0" width="450" height="380" fill="#0b0f14"/><text x="30" y="20" fill="#cfe6ff" font-family="Inter, Segoe UI, Arial" font-size="12">Third Floor North</text><g font-family="Inter, Segoe UI, Arial" font-size="10"><g id="TMC01024" class="seat">  <rect x="84" y="32" width="60" height="36" rx="6" ry="6" fill="#5b6778" stroke="#223"/>
  <text x="114.0" y="53.0" text-anchor="middle" fill="#e8f0f6">TMC01024</text>
</g><g id="TMC01092" class="seat">  <rect x="148" y="32" width="90" height="36" rx="6" ry="6" fill="#5b6778" stroke="#223"/>
  <text x="193.0" y="53.0" text-anchor="middle" fill="#e8f0f6">TMC01092</text>
</g><g id="TMC01091" class="seat">  <rect x="242" y="32" width="60" height="36" rx="6" ry="6" fill="#5b6778" stroke="#223"/>
  <text x="272.0" y="53.0" text-anchor="middle" fill="#e8f0f6">TMC01091</text>
</g><g id="TMC01090" class="seat">  <rect x="306" y="32" width="60" height="36" rx="6" ry="6" fill="#5b6778" stroke="#223"/>
  <text x="336.0" y="53.0" text-anchor="middle" fill="#e8f0f6">TMC01090</text>
</g><g id="TMC01089" class="seat">  <rect x="370" y="32" width="48" height="36" rx="6" ry="6" fill="#5b6778" stroke="#223"/>
  <text x="394.0" y="53.0" text-anchor="middle" fill="#e8f0f6">TMC01089</text>
</g><g id="TMC01232" class="seat">  <rect x="148" y="72" width="90" height="36" rx="6" ry="6" fill="#5b6778" stroke="#223"/>
  <text x="193.0" y="93.0" text-anchor="middle" fill="#e8f0f6">TMC01232</text>
</g><g id="TMC01086" class="seat">  <rect x="242" y="72" width="60" height="36" rx="6" ry="6" fill="#5b6778" stroke="#223"/>
  <text x="272.0" y="93.0" text-anchor="middle" fill="#e8f0f6">TMC01086</text>
</g><g id="TMC01087" class="seat">  <rect x="306" y="72" width="60" height="36" rx="6" ry="6" fill="#5b6778" stroke="#223"/>
  <text x="336.0" y="93.0" text-anchor="middle" fill="#e8f0f6">TMC01087</text>
</g><g id="TMC01088" class="seat">  <rect x="370" y="72" width="48" height="36" rx="6" ry="6" fill="#5b6778" stroke="#223"/>
  <text x="394.0" y="93.0" text-anchor="middle" fill="#e8f0f6">TMC01088</text>
</g><g id="TMC01084" class="seat">  <rect x="32" y="152" width="48" height="36" rx="6" ry="6" fill="#5b6778" stroke="#223"/>
  <text x="56.0" y="173.0" text-anchor="middle" fill="#e8f0f6">TMC01084</text>
</g><g id="TMC01083" class="seat">  <rect x="148" y="152" width="90" height="36" rx="6" ry="6" fill="#5b6778" stroke="#223"/>
  <text x="193.0" y="173.0" text-anchor="middle" fill="#e8f0f6">TMC01083</text>
</g><g id="TMC01082" class="seat">  <rect x="242" y="152" width="60" height="36" rx="6" ry="6" fill="#5b6778" stroke="#223"/>
  <text x="272.0" y="173.0" text-anchor="middle" fill="#e8f0f6">TMC01082</text>
</g><g id="TMC01081" class="seat">  <rect x="306" y="152" width="60" height="36" rx="6" ry="6" fill="#5b6778" stroke="#223"/>
  <text x="336.0" y="173.0" text-anchor="middle" fill="#e8f0f6">TMC01081</text>
</g><g id="TMC01080" class="seat">  <rect x="370" y="152" width="48" height="36" rx="6" ry="6" fill="#5b6778" stroke="#223"/>
  <text x="394.0" y="173.0" text-anchor="middle" fill="#e8f0f6">TMC01080</text>
</g><g id="TMC01075" class="seat">  <rect x="32" y="192" width="48" height="36" rx="6" ry="6" fill="#5b6778" stroke="#223"/>
  <text x="56.0" y="213.0" text-anchor="middle" fill="#e8f0f6">TMC01075</text>
</g><g id="TMC01076" class="seat">  <rect x="148" y="192" width="90" height="36" rx="6" ry="6" fill="#5b6778" stroke="#223"/>
  <text x="193.0" y="213.0" text-anchor="middle" fill="#e8f0f6">TMC01076</text>
</g><g id="TMC01077" class="seat">  <rect x="242" y="192" width="60" height="36" rx="6" ry="6" fill="#5b6778" stroke="#223"/>
  <text x="272.0" y="213.0" text-anchor="middle" fill="#e8f0f6">TMC01077</text>
</g><g id="TMC01078" class="seat">  <rect x="306" y="192" width="60" height="36" rx="6" ry="6" fill="#5b6778" stroke="#223"/>
  <text x="336.0" y="213.0" text-anchor="middle" fill="#e8f0f6">TMC01078</text>
</g><g id="TMC01079" class="seat">  <rect x="370" y="192" width="48" height="36" rx="6" ry="6" fill="#5b6778" stroke="#223"/>
  <text x="394.0" y="213.0" text-anchor="middle" fill="#e8f0f6">TMC01079</text>
</g><g id="TMC01021" class="seat">  <rect x="84" y="272" width="60" height="36" rx="6" ry="6" fill="#5b6778" stroke="#223"/>
  <text x="114.0" y="293.0" text-anchor="middle" fill="#e8f0f6">TMC01021</text>
</g><g id="TMC01074" class="seat">  <rect x="148" y="272" width="90" height="36" rx="6" ry="6" fill="#5b6778" stroke="#223"/>
  <text x="193.0" y="293.0" text-anchor="middle" fill="#e8f0f6">TMC01074</text>
</g><g id="TMC01073" class="seat">  <rect x="242" y="272" width="60" height="36" rx="6" ry="6" fill="#5b6778" stroke="#223"/>
  <text x="272.0" y="293.0" text-anchor="middle" fill="#e8f0f6">TMC01073</text>
</g><g id="TMC01072" class="seat">  <rect x="306" y="272" width="60" height="36" rx="6" ry="6" fill="#5b6778" stroke="#223"/>
  <text x="336.0" y="293.0" text-anchor="middle" fill="#e8f0f6">TMC01072</text>
</g><g id="TMC01071" class="seat">  <rect x="370" y="272" width="48" height="36" rx="6" ry="6" fill="#5b6778" stroke="#223"/>
  <text x="394.0" y="293.0" text-anchor="middle" fill="#e8f0f6">TMC01071</text>
</g><g id="TMC01067" class="seat">  <rect x="148" y="312" width="90" height="36" rx="6" ry="6" fill="#5b6778" stroke="#223"/>
  <text x="193.0" y="333.0" text-anchor="middle" fill="#e8f0f6">TMC01067</text>
</g><g id="TMC01068" class="seat">  <rect x="242" y="312" width="60" height="36" rx="6" ry="6" fill="#5b6778" stroke="#223"/>
  <text x="272.0" y="333.0" text-anchor="middle" fill="#e8f0f6">TMC01068</text>
</g><g id="TMC01069" class="seat">  <rect x="306" y="312" width="60" height="36" rx="6" ry="6" fill="#5b6778" stroke="#223"/>
  <text x="336.0" y="333.0" text-anchor="middle" fill="#e8f0f6">TMC01069</text>
</g><g id="TMC01070" class="seat">  <rect x="370" y="312" width="48" height="36" rx="6" ry="6" fill="#5b6778" stroke="#223"/>
  <text x="394.0" y="333.0" text-anchor="middle" fill="#e8f0f6">TMC01070</text>
</g></g></svg>